<svg class='briefcase' width="53" height="40" viewBox="0 0 75 82" fill="none" xmlns="http://www.w3.org/2000/svg">
<path d="M30 13.6V9.06667H45V13.6H52.5V9.06667C52.498 6.66278 51.7072 4.35803 50.3011 2.65822C48.895 0.958407 46.9885 0.0024003 45 0H30C28.0115 0.0024003 26.105 0.958407 24.6989 2.65822C23.2928 4.35803 22.502 6.66278 22.5 9.06667V13.6H30Z" fill="hsl(38, 33%, 58%)"/>
<path opacity="0.25" d="M26.25 54.3999C25.2554 54.3999 24.3016 53.9223 23.5984 53.0722C22.8951 52.222 22.5 51.0689 22.5 49.8666V40.7999C22.5 39.5976 22.8951 38.4446 23.5984 37.5944C24.3016 36.7442 25.2554 36.2666 26.25 36.2666C27.2446 36.2666 28.1984 36.7442 28.9016 37.5944C29.6049 38.4446 30 39.5976 30 40.7999V49.8666C30 51.0689 29.6049 52.222 28.9016 53.0722C28.1984 53.9223 27.2446 54.3999 26.25 54.3999ZM48.75 54.3999C47.7554 54.3999 46.8016 53.9223 46.0984 53.0722C45.3951 52.222 45 51.0689 45 49.8666V40.7999C45 39.5976 45.3951 38.4446 46.0984 37.5944C46.8016 36.7442 47.7554 36.2666 48.75 36.2666C49.7446 36.2666 50.6984 36.7442 51.4016 37.5944C52.1049 38.4446 52.5 39.5976 52.5 40.7999V49.8666C52.5 51.0689 52.1049 52.222 51.4016 53.0722C50.6984 53.9223 49.7446 54.3999 48.75 54.3999Z" fill="hsl(38, 33%, 58%)"/>
<path opacity="0.5" d="M67.5 13.6H7.5C5.51088 13.6 3.60322 14.5552 2.1967 16.2555C0.790176 17.9559 0 20.262 0 22.6666V36.2667C0 38.6713 0.790176 40.9774 2.1967 42.6778C3.60322 44.3781 5.51088 45.3333 7.5 45.3333H22.5V40.8C22.5 39.5977 22.8951 38.4446 23.5984 37.5944C24.3016 36.7443 25.2554 36.2667 26.25 36.2667C27.2446 36.2667 28.1984 36.7443 28.9016 37.5944C29.6049 38.4446 30 39.5977 30 40.8V45.3333H45V40.8C45 39.5977 45.3951 38.4446 46.0984 37.5944C46.8016 36.7443 47.7554 36.2667 48.75 36.2667C49.7446 36.2667 50.6984 36.7443 51.4016 37.5944C52.1049 38.4446 52.5 39.5977 52.5 40.8V45.3333H67.5C69.4891 45.3333 71.3968 44.3781 72.8033 42.6778C74.2098 40.9774 75 38.6713 75 36.2667V22.6666C75 20.262 74.2098 17.9559 72.8033 16.2555C71.3968 14.5552 69.4891 13.6 67.5 13.6Z" fill="hsl(38, 33%, 58%)"/>
<path d="M67.5 45.3333H52.5V49.8666C52.5 51.0689 52.1049 52.222 51.4016 53.0722C50.6984 53.9223 49.7446 54.3999 48.75 54.3999C47.7554 54.3999 46.8016 53.9223 46.0984 53.0722C45.3951 52.222 45 51.0689 45 49.8666V45.3333H30V49.8666C30 51.0689 29.6049 52.222 28.9016 53.0722C28.1984 53.9223 27.2446 54.3999 26.25 54.3999C25.2554 54.3999 24.3016 53.9223 23.5984 53.0722C22.8951 52.222 22.5 51.0689 22.5 49.8666V45.3333H7.5C5.51088 45.3333 3.60322 44.378 2.1967 42.6777C0.790176 40.9774 0 38.6712 0 36.2666V72.5333C0 74.9379 0.790176 77.244 2.1967 78.9444C3.60322 80.6447 5.51088 81.5999 7.5 81.5999H67.5C69.4891 81.5999 71.3968 80.6447 72.8033 78.9444C74.2098 77.244 75 74.9379 75 72.5333V36.2666C75 38.6712 74.2098 40.9774 72.8033 42.6777C71.3968 44.378 69.4891 45.3333 67.5 45.3333Z" fill="hsl(38, 33%, 58%)"/>
</svg>
