<?xml version="1.0" encoding="UTF-8" standalone="no"?>
<!DOCTYPE svg PUBLIC "-//W3C//DTD SVG 1.1//EN" "http://www.w3.org/Graphics/SVG/1.1/DTD/svg11.dtd">
<svg width="200px" height="100px" version="1.1" xmlns="http://www.w3.org/2000/svg" xmlns:xlink="http://www.w3.org/1999/xlink" xml:space="preserve" xmlns:serif="http://www.serif.com/" style="fill-rule:evenodd;clip-rule:evenodd;stroke-linecap:square;">
    <g id="building" transform="matrix(-1.016,0,0,0.775909,266.423,-8.594)">
        <g>
            <path d="M71.101,137.34C71.101,137.34 71.104,71.19 71.088,58.269C71.06,36.598 81.147,34.155 91.221,34.165L91.221,16.033C91.221,16.033 112.995,15.301 112.999,37.877L112.999,50.502L121.538,50.502L121.536,36.942L137.363,36.942L137.363,32.799L150.393,32.799L150.393,40.332L152.406,40.335L152.406,47.868" style="fill:none;fill-rule:nonzero;stroke:rgb(66,66,66);stroke-width:1.66px;"/>
        </g>
    </g>
    <g id="dash" transform="matrix(0.826596,0,0,1.35622,-0.808723,-26.7625)">
        <path d="M29.344,83L106.356,83L29.344,83Z" style="fill:none;stroke:rgb(30,94,51);stroke-width:1.78px;stroke-linecap:butt;stroke-linejoin:round;stroke-miterlimit:1.5;"/>
    </g>
    <g id="david" transform="matrix(1,0,0,1,4.76946,8.54479)">
        <path d="M18.678,21.894L21.217,21.894L21.23,4.451L18.678,4.451L18.678,3.46L27.234,3.46C32.338,3.46 35.639,5.073 37.137,8.297C37.755,9.626 38.064,11.2 38.064,13.02C38.064,15.44 37.361,17.552 35.956,19.355C34.822,20.802 33.176,21.822 31.018,22.414C29.884,22.728 28.563,22.884 27.057,22.884L18.678,22.884L18.678,21.894ZM26.904,21.894C29.57,21.894 31.479,21.23 32.63,19.901C33.781,18.572 34.357,16.308 34.357,13.109L34.357,12.715C34.306,9.651 33.69,7.508 32.509,6.285C31.329,5.062 29.515,4.451 27.069,4.451L24.645,4.451L24.645,21.894L26.904,21.894Z" style="fill:rgb(76,76,76);fill-rule:nonzero;"/>
        <path d="M49.007,21.45C48.025,22.575 46.709,23.138 45.059,23.138C43.806,23.138 42.727,22.789 41.821,22.091C40.916,21.392 40.463,20.478 40.463,19.348C40.463,18.219 40.907,17.33 41.796,16.682C42.685,16.035 43.829,15.711 45.23,15.711C46.631,15.711 47.801,16.063 48.74,16.765L48.74,13.744C48.74,12.719 48.613,12.025 48.359,11.661C48.106,11.298 47.807,11.044 47.464,10.9C47.122,10.756 46.743,10.684 46.328,10.684C45.677,10.684 45.126,10.758 44.678,10.906C44.229,11.054 43.929,11.204 43.776,11.357C44.166,11.475 44.466,11.772 44.678,12.245C44.746,12.415 44.779,12.618 44.779,12.855C44.779,13.32 44.61,13.708 44.272,14.016C43.933,14.325 43.594,14.48 43.256,14.48C42.663,14.48 42.202,14.323 41.872,14.01C41.542,13.697 41.377,13.32 41.377,12.88C41.377,12.44 41.457,12.078 41.618,11.795C41.779,11.511 41.995,11.255 42.266,11.027C42.782,10.595 43.432,10.265 44.214,10.036C44.997,9.808 45.732,9.694 46.417,9.694C48.321,9.694 49.731,10.079 50.645,10.849C51.559,11.619 52.016,12.694 52.016,14.074L52.016,20.84C52.016,21.543 52.189,21.894 52.536,21.894C52.883,21.894 53.218,21.682 53.539,21.259L54.199,21.805C53.624,22.677 52.684,23.113 51.381,23.113C50.924,23.113 50.461,22.969 49.991,22.681C49.521,22.393 49.193,21.983 49.007,21.45ZM48.778,17.895C48.059,17.192 47.272,16.841 46.417,16.841C45.562,16.841 44.919,17.042 44.487,17.444C44.056,17.846 43.84,18.492 43.84,19.38C43.84,20.692 44.301,21.488 45.224,21.767C45.486,21.852 45.753,21.894 46.024,21.894C46.794,21.894 47.53,21.598 48.232,21.005C48.436,20.827 48.618,20.637 48.778,20.434L48.778,17.895Z" style="fill:rgb(76,76,76);fill-rule:nonzero;"/>
        <path d="M55.774,10.887L54.453,10.887L54.453,9.897L61.144,9.897L61.144,10.887L59.506,10.887L63.315,19.609L66.742,10.887L65.028,10.887L65.028,9.897L69.649,9.897L69.649,10.887L67.999,10.887L62.972,23.138L61.639,23.138L55.774,10.887Z" style="fill:rgb(76,76,76);fill-rule:nonzero;"/>
        <path d="M75.388,6.799C75.049,7.138 74.639,7.307 74.156,7.307C73.674,7.307 73.259,7.14 72.912,6.806C72.565,6.471 72.392,6.118 72.392,5.745C72.392,5.119 72.561,4.637 72.899,4.298C73.238,3.96 73.653,3.79 74.144,3.79C74.922,3.79 75.46,4.146 75.756,4.857C75.849,5.068 75.896,5.297 75.896,5.542C75.896,6.042 75.726,6.461 75.388,6.799ZM70.411,21.894L72.468,21.894L72.468,10.887L70.589,10.887L70.589,9.897L75.832,9.897L75.832,21.894L77.889,21.894L77.889,22.884L70.411,22.884L70.411,21.894Z" style="fill:rgb(76,76,76);fill-rule:nonzero;"/>
        <path d="M90.051,21.564C89.052,22.613 87.558,23.138 85.569,23.138C84.909,23.138 84.217,23.009 83.494,22.751C82.77,22.493 82.135,22.089 81.589,21.538C81.044,20.988 80.612,20.288 80.295,19.437C79.977,18.587 79.818,17.603 79.818,16.486C79.818,14.387 80.432,12.728 81.659,11.509C82.886,10.29 84.385,9.681 86.153,9.681C87.271,9.681 88.303,9.91 89.251,10.367C89.556,10.51 89.822,10.671 90.051,10.849L90.051,2.495L87.423,2.495L87.423,1.505L93.352,1.505L93.352,21.894L95.231,21.894L95.231,22.884L90.051,22.884L90.051,21.564ZM86.687,10.773C84.478,10.773 83.373,12.635 83.373,16.359C83.373,19.126 83.97,20.87 85.163,21.589C85.578,21.843 86.105,21.968 86.744,21.964C87.383,21.959 87.996,21.784 88.585,21.437C89.173,21.09 89.662,20.624 90.051,20.04L90.051,12.195C89.399,11.518 88.57,11.077 87.563,10.874C87.258,10.807 86.966,10.773 86.687,10.773Z" style="fill:rgb(76,76,76);fill-rule:nonzero;"/>
    </g>
    <g transform="matrix(1,0,0,1,-11.1069,9.24366)">
        <path d="M31.45,36.947C31.374,36 31.022,35.262 30.392,34.731C29.762,34.201 28.808,33.936 27.53,33.936C26.715,33.936 26.05,34.033 25.534,34.227C25.018,34.421 24.637,34.684 24.39,35.015C24.144,35.347 24.016,35.726 24.007,36.152C23.988,36.502 24.052,36.817 24.199,37.096C24.345,37.376 24.58,37.627 24.902,37.849C25.224,38.072 25.636,38.273 26.138,38.453C26.639,38.633 27.236,38.794 27.927,38.936L30.314,39.447C31.924,39.788 33.301,40.238 34.447,40.797C35.593,41.355 36.531,42.011 37.26,42.764C37.989,43.517 38.526,44.362 38.872,45.299C39.218,46.237 39.395,47.26 39.405,48.368C39.395,50.281 38.917,51.9 37.97,53.226C37.023,54.551 35.671,55.56 33.915,56.251C32.158,56.942 30.049,57.288 27.586,57.288C25.058,57.288 22.854,56.914 20.974,56.166C19.095,55.418 17.636,54.265 16.599,52.707C15.562,51.149 15.039,49.154 15.03,46.72L22.53,46.72C22.577,47.61 22.8,48.358 23.197,48.964C23.595,49.57 24.156,50.03 24.88,50.342C25.605,50.655 26.469,50.811 27.473,50.811C28.316,50.811 29.021,50.707 29.589,50.498C30.157,50.29 30.588,50.001 30.882,49.632C31.175,49.263 31.327,48.841 31.336,48.368C31.327,47.923 31.183,47.532 30.903,47.196C30.624,46.86 30.167,46.557 29.532,46.287C28.898,46.017 28.041,45.763 26.961,45.527L24.064,44.902C21.488,44.343 19.459,43.408 17.977,42.096C16.495,40.785 15.759,38.993 15.768,36.72C15.759,34.873 16.254,33.256 17.253,31.869C18.252,30.482 19.639,29.4 21.415,28.623C23.19,27.847 25.229,27.459 27.53,27.459C29.878,27.459 31.909,27.852 33.623,28.638C35.337,29.424 36.661,30.529 37.594,31.954C38.526,33.379 38.997,35.044 39.007,36.947L31.45,36.947Z" style="fill:rgb(40,79,35);fill-rule:nonzero;"/>
        <path d="M55.541,35.129L55.541,40.811L41.166,40.811L41.166,35.129L55.541,35.129ZM43.95,29.902L51.791,29.902L51.791,49.93C51.791,50.233 51.843,50.486 51.947,50.69C52.051,50.894 52.212,51.045 52.43,51.145C52.648,51.244 52.927,51.294 53.268,51.294C53.505,51.294 53.782,51.265 54.099,51.209C54.416,51.152 54.651,51.104 54.802,51.067L55.939,56.578C55.588,56.682 55.089,56.81 54.44,56.961C53.791,57.113 53.022,57.212 52.132,57.26C50.333,57.354 48.822,57.167 47.601,56.699C46.379,56.23 45.461,55.489 44.845,54.476C44.229,53.462 43.931,52.193 43.95,50.669L43.95,29.902Z" style="fill:rgb(40,79,35);fill-rule:nonzero;"/>
        <path d="M58.723,56.947L58.723,35.129L66.336,35.129L66.336,39.277L66.564,39.277C66.961,37.743 67.594,36.62 68.46,35.91C69.327,35.2 70.342,34.845 71.507,34.845C71.848,34.845 72.186,34.871 72.523,34.923C72.859,34.975 73.183,35.049 73.496,35.143L73.496,41.834C73.107,41.701 72.629,41.602 72.061,41.535C71.493,41.469 71.005,41.436 70.598,41.436C69.831,41.436 69.142,41.609 68.531,41.954C67.92,42.3 67.44,42.783 67.089,43.403C66.739,44.023 66.564,44.75 66.564,45.584L66.564,56.947L58.723,56.947Z" style="fill:rgb(40,79,35);fill-rule:nonzero;"/>
        <path d="M85.314,57.345C82.946,57.345 80.92,56.874 79.234,55.932C77.549,54.989 76.256,53.673 75.356,51.983C74.457,50.292 74.007,48.33 74.007,46.095C74.007,43.86 74.457,41.897 75.356,40.207C76.256,38.517 77.549,37.201 79.234,36.258C80.92,35.316 82.946,34.845 85.314,34.845C87.681,34.845 89.708,35.316 91.393,36.258C93.079,37.201 94.371,38.517 95.271,40.207C96.171,41.897 96.621,43.86 96.621,46.095C96.621,48.33 96.171,50.292 95.271,51.983C94.371,53.673 93.079,54.989 91.393,55.932C89.708,56.874 87.681,57.345 85.314,57.345ZM85.371,51.549C86.033,51.549 86.606,51.327 87.089,50.882C87.572,50.437 87.946,49.802 88.211,48.978C88.477,48.155 88.609,47.174 88.609,46.038C88.609,44.892 88.477,43.91 88.211,43.091C87.946,42.272 87.572,41.639 87.089,41.194C86.606,40.749 86.033,40.527 85.371,40.527C84.67,40.527 84.068,40.749 83.567,41.194C83.065,41.639 82.681,42.272 82.416,43.091C82.151,43.91 82.018,44.892 82.018,46.038C82.018,47.174 82.151,48.155 82.416,48.978C82.681,49.802 83.065,50.437 83.567,50.882C84.068,51.327 84.67,51.549 85.371,51.549Z" style="fill:rgb(40,79,35);fill-rule:nonzero;"/>
        <path d="M112.814,35.129L112.814,40.811L98.439,40.811L98.439,35.129L112.814,35.129ZM101.223,29.902L109.064,29.902L109.064,49.93C109.064,50.233 109.116,50.486 109.22,50.69C109.324,50.894 109.485,51.045 109.703,51.145C109.921,51.244 110.2,51.294 110.541,51.294C110.778,51.294 111.055,51.265 111.372,51.209C111.689,51.152 111.924,51.104 112.075,51.067L113.211,56.578C112.861,56.682 112.362,56.81 111.713,56.961C111.064,57.113 110.295,57.212 109.405,57.26C107.605,57.354 106.095,57.167 104.873,56.699C103.652,56.23 102.733,55.489 102.118,54.476C101.502,53.462 101.204,52.193 101.223,50.669L101.223,29.902Z" style="fill:rgb(40,79,35);fill-rule:nonzero;"/>
        <path d="M124.291,44.674L124.291,56.947L116.45,56.947L116.45,27.856L124.007,27.856L124.007,39.277L124.234,39.277C124.727,37.885 125.546,36.798 126.692,36.017C127.837,35.236 129.215,34.845 130.825,34.845C132.369,34.845 133.711,35.195 134.852,35.896C135.993,36.597 136.879,37.563 137.508,38.794C138.138,40.025 138.448,41.436 138.439,43.027L138.439,56.947L130.598,56.947L130.598,44.674C130.607,43.595 130.34,42.747 129.795,42.132C129.251,41.516 128.477,41.209 127.473,41.209C126.838,41.209 126.282,41.348 125.804,41.628C125.326,41.907 124.956,42.305 124.696,42.821C124.435,43.337 124.3,43.955 124.291,44.674Z" style="fill:rgb(40,79,35);fill-rule:nonzero;"/>
        <path d="M152.757,57.345C150.427,57.345 148.422,56.897 146.741,56.003C145.06,55.108 143.768,53.82 142.863,52.139C141.959,50.458 141.507,48.443 141.507,46.095C141.507,43.841 141.961,41.871 142.871,40.186C143.78,38.5 145.063,37.189 146.72,36.251C148.377,35.314 150.333,34.845 152.586,34.845C154.234,34.845 155.726,35.101 157.061,35.612C158.396,36.123 159.537,36.864 160.484,37.835C161.431,38.806 162.16,39.982 162.672,41.365C163.183,42.747 163.439,44.305 163.439,46.038L163.439,47.856L143.95,47.856L143.95,43.538L156.223,43.538C156.213,42.913 156.055,42.361 155.747,41.883C155.439,41.405 155.027,41.031 154.511,40.761C153.995,40.491 153.41,40.356 152.757,40.356C152.122,40.356 151.54,40.491 151.01,40.761C150.479,41.031 150.056,41.403 149.738,41.876C149.421,42.35 149.253,42.904 149.234,43.538L149.234,48.197C149.234,48.898 149.381,49.523 149.675,50.072C149.968,50.621 150.389,51.052 150.939,51.365C151.488,51.677 152.151,51.834 152.927,51.834C153.467,51.834 153.962,51.758 154.412,51.606C154.862,51.455 155.247,51.235 155.569,50.946C155.891,50.657 156.128,50.309 156.28,49.902L163.439,49.902C163.193,51.417 162.61,52.731 161.692,53.844C160.773,54.956 159.559,55.818 158.048,56.429C156.538,57.04 154.774,57.345 152.757,57.345Z" style="fill:rgb(40,79,35);fill-rule:nonzero;"/>
        <path d="M166.621,56.947L166.621,35.129L174.234,35.129L174.234,39.277L174.461,39.277C174.859,37.743 175.491,36.62 176.358,35.91C177.224,35.2 178.24,34.845 179.405,34.845C179.746,34.845 180.084,34.871 180.42,34.923C180.756,34.975 181.081,35.049 181.393,35.143L181.393,41.834C181.005,41.701 180.527,41.602 179.959,41.535C179.39,41.469 178.903,41.436 178.496,41.436C177.729,41.436 177.04,41.609 176.429,41.954C175.818,42.3 175.337,42.783 174.987,43.403C174.637,44.023 174.461,44.75 174.461,45.584L174.461,56.947L166.621,56.947Z" style="fill:rgb(40,79,35);fill-rule:nonzero;"/>
    </g>
    <g id="strother" transform="matrix(1,0,0,1,-24.4351,12.4934)">
        <path d="M143.119,69.505L136.372,69.505C136.282,68.812 136.098,68.187 135.819,67.629C135.54,67.072 135.171,66.595 134.712,66.199C134.253,65.803 133.711,65.5 133.086,65.288C132.461,65.077 131.771,64.971 131.015,64.971C129.674,64.971 128.521,65.299 127.554,65.956C126.586,66.613 125.844,67.562 125.327,68.803C124.81,70.045 124.551,71.547 124.551,73.311C124.551,75.146 124.814,76.682 125.341,77.919C125.867,79.156 126.609,80.087 127.567,80.712C128.525,81.337 129.661,81.65 130.974,81.65C131.712,81.65 132.385,81.556 132.992,81.367C133.599,81.178 134.134,80.901 134.598,80.537C135.061,80.172 135.443,79.727 135.745,79.201C136.046,78.675 136.255,78.079 136.372,77.413L143.119,77.453C143.002,78.677 142.649,79.882 142.06,81.07C141.471,82.257 140.663,83.339 139.638,84.315C138.612,85.291 137.364,86.067 135.893,86.643C134.422,87.219 132.738,87.507 130.839,87.507C128.338,87.507 126.101,86.956 124.126,85.854C122.151,84.752 120.593,83.143 119.45,81.029C118.308,78.915 117.736,76.342 117.736,73.311C117.736,70.27 118.317,67.692 119.477,65.578C120.638,63.464 122.208,61.858 124.187,60.761C126.166,59.663 128.383,59.115 130.839,59.115C132.513,59.115 134.06,59.346 135.481,59.81C136.903,60.273 138.153,60.948 139.233,61.834C140.312,62.72 141.19,63.806 141.864,65.093C142.539,66.379 142.957,67.85 143.119,69.505Z" style="fill:rgb(66,66,66);fill-rule:nonzero;"/>
        <path d="M146.925,87.129L146.925,59.492L158.341,59.492C160.41,59.492 162.198,59.895 163.705,60.7C165.212,61.505 166.374,62.625 167.193,64.06C168.012,65.495 168.421,67.162 168.421,69.06C168.421,70.967 168.005,72.634 167.173,74.06C166.341,75.485 165.155,76.59 163.617,77.372C162.079,78.155 160.253,78.546 158.138,78.546L151.094,78.546L151.094,73.284L156.897,73.284C157.905,73.284 158.748,73.108 159.427,72.757C160.106,72.406 160.621,71.914 160.972,71.28C161.323,70.645 161.499,69.906 161.499,69.06C161.499,68.205 161.323,67.465 160.972,66.84C160.621,66.215 160.104,65.731 159.42,65.389C158.737,65.048 157.896,64.877 156.897,64.877L153.604,64.877L153.604,87.129L146.925,87.129Z" style="fill:rgb(66,66,66);fill-rule:nonzero;"/>
        <path d="M174.359,87.129L167.18,87.129L176.504,59.492L185.397,59.492L194.722,87.129L187.543,87.129L181.052,66.455L180.836,66.455L174.359,87.129ZM173.401,76.252L188.406,76.252L188.406,81.326L173.401,81.326L173.401,76.252Z" style="fill:rgb(66,66,66);fill-rule:nonzero;"/>
    </g>
</svg>
