<svg width="150" height="77" fill="none" xmlns="http://www.w3.org/2000/svg"><path clip-rule="evenodd" d="M15.391 64.94h50.184H15.39z" stroke="#565656" stroke-width="2" stroke-miterlimit="1.5"/><path d="M90.47 62.148h-5.32a4.069 4.069 0 0 0-.435-1.376 3.395 3.395 0 0 0-.873-1.05 3.896 3.896 0 0 0-1.282-.667 5.426 5.426 0 0 0-1.632-.233c-1.057 0-1.966.24-2.729.723-.763.482-1.348 1.178-1.755 2.088-.408.911-.612 2.013-.612 3.307 0 1.346.207 2.472.623 3.38.414.907 1 1.59 1.755 2.049.755.458 1.65.688 2.685.688.582 0 1.113-.07 1.591-.208.479-.139.9-.342 1.266-.609a3.45 3.45 0 0 0 .905-.98 3.84 3.84 0 0 0 .494-1.311l5.319.029c-.093.898-.37 1.782-.835 2.653-.464.87-1.101 1.665-1.91 2.38-.808.716-1.792 1.286-2.952 1.708-1.16.423-2.487.634-3.984.634-1.972 0-3.735-.404-5.292-1.213-1.557-.808-2.785-1.988-3.686-3.539-.9-1.55-1.352-3.438-1.352-5.661 0-2.23.459-4.122 1.373-5.673.915-1.55 2.153-2.728 3.713-3.533 1.56-.805 3.308-1.207 5.244-1.207 1.32 0 2.54.17 3.66.51 1.12.339 2.106.834 2.957 1.484a7.776 7.776 0 0 1 2.074 2.39c.532.944.862 2.023.99 3.237zM93.47 75.076V54.803h9c1.631 0 3.04.296 4.228.886 1.188.59 2.105 1.412 2.75 2.465.646 1.052.968 2.275.968 3.667 0 1.4-.328 2.622-.984 3.668-.655 1.045-1.59 1.856-2.803 2.43-1.212.574-2.652.86-4.319.86h-5.553V64.92h4.574c.795 0 1.46-.13 1.995-.387.535-.257.941-.618 1.218-1.083.277-.466.415-1.008.415-1.629 0-.627-.138-1.17-.415-1.628-.277-.458-.684-.813-1.224-1.064-.538-.25-1.201-.376-1.989-.376h-2.596v16.323H93.47zM115.097 75.076h-5.659l7.35-20.273h7.011l7.351 20.273h-5.659l-5.117-15.165h-.171l-5.106 15.165zm-.755-7.979h11.829v3.722h-11.829v-3.722z" fill="#565656"/><path d="M12.944 35.882c-.06-.695-.337-1.236-.834-1.625-.496-.39-1.248-.584-2.256-.584-.642 0-1.167.072-1.573.214-.407.142-.707.335-.902.578a1.354 1.354 0 0 0-.302.834 1.23 1.23 0 0 0 .151.692c.115.206.3.39.554.553.254.163.58.31.975.443.395.132.865.25 1.41.354l1.882.375c1.27.25 2.355.58 3.258.99.903.41 1.643.89 2.218 1.443a5.255 5.255 0 0 1 1.27 1.86c.273.688.413 1.438.42 2.25-.007 1.404-.384 2.591-1.13 3.564-.747.972-1.813 1.712-3.197 2.219-1.385.507-3.048.76-4.99.76-1.993 0-3.73-.274-5.212-.822-1.481-.549-2.632-1.395-3.45-2.538C.42 46.3.008 44.836 0 43.051h5.913c.037.653.212 1.201.525 1.646.314.444.756.782 1.327 1.01.572.23 1.253.345 2.044.345.665 0 1.22-.077 1.668-.23.448-.153.788-.364 1.02-.635.23-.27.35-.58.358-.927a1.293 1.293 0 0 0-.342-.86c-.22-.246-.58-.469-1.08-.667-.5-.198-1.176-.384-2.027-.557l-2.284-.459c-2.03-.41-3.63-1.096-4.799-2.058-1.168-.962-1.748-2.276-1.741-3.944-.007-1.354.383-2.54 1.17-3.558.788-1.017 1.881-1.81 3.282-2.38 1.399-.57 3.006-.855 4.82-.855 1.851 0 3.452.289 4.804.865 1.35.577 2.394 1.387 3.13 2.433.735 1.045 1.106 2.266 1.114 3.662h-5.958zM31.936 34.548v4.168H20.604v-4.168h11.332zM22.8 30.714h6.181v14.691c0 .223.041.408.123.558.082.15.209.26.38.334.173.072.393.109.661.109.187 0 .406-.021.655-.062.25-.042.436-.077.555-.105l.896 4.043c-.277.076-.67.17-1.182.28-.511.112-1.117.185-1.82.22-1.417.07-2.608-.068-3.571-.411-.963-.344-1.687-.888-2.173-1.63-.485-.745-.72-1.676-.705-2.794V30.714zM34.445 50.553V34.548h6.001v3.043h.18c.313-1.125.812-1.949 1.495-2.47.683-.52 1.483-.78 2.402-.78.269 0 .535.018.8.056.266.038.521.093.768.162v4.908a5.916 5.916 0 0 0-1.131-.22 10.97 10.97 0 0 0-1.154-.072 3.45 3.45 0 0 0-1.63.38c-.48.254-.86.608-1.136 1.063-.276.454-.414.988-.414 1.6v8.335h-6.181zM55.407 50.844c-1.866 0-3.464-.345-4.793-1.036-1.328-.692-2.347-1.657-3.057-2.897-.709-1.24-1.063-2.68-1.063-4.319 0-1.64.354-3.079 1.063-4.319.71-1.24 1.729-2.205 3.057-2.896 1.33-.691 2.927-1.037 4.793-1.037s3.464.346 4.793 1.037c1.329.691 2.347 1.657 3.057 2.896.71 1.24 1.064 2.68 1.064 4.32 0 1.639-.355 3.078-1.064 4.318-.71 1.24-1.728 2.205-3.057 2.897-1.329.691-2.927 1.036-4.793 1.036zm.045-4.251c.522 0 .974-.163 1.355-.49.38-.326.675-.791.884-1.396.21-.604.314-1.323.314-2.157 0-.84-.104-1.56-.314-2.161-.209-.6-.504-1.065-.884-1.392a2.013 2.013 0 0 0-1.355-.489c-.552 0-1.027.163-1.422.49-.396.326-.698.79-.907 1.39-.21.602-.314 1.322-.314 2.163 0 .833.105 1.552.314 2.156.209.605.511 1.07.907 1.397.395.326.87.489 1.422.489zM77.087 34.548v4.168H65.754v-4.168h11.333zm-9.138-3.834h6.181v14.691c0 .223.041.408.123.558.082.15.21.26.381.334.172.072.392.109.66.109.188 0 .406-.021.656-.062.25-.042.435-.077.554-.105l.896 4.043c-.276.076-.67.17-1.181.28-.512.112-1.118.185-1.82.22-1.419.07-2.61-.068-3.573-.411-.962-.344-1.686-.888-2.171-1.63-.486-.745-.72-1.676-.706-2.794V30.714zM86.134 41.55v9.003h-6.181v-21.34h5.957v8.378h.179a4.757 4.757 0 0 1 1.938-2.391c.902-.573 1.989-.86 3.258-.86 1.217 0 2.275.257 3.175.771a5.4 5.4 0 0 1 2.093 2.126c.497.903.741 1.938.734 3.105v10.21h-6.181V41.55c.007-.791-.203-1.413-.633-1.865-.429-.452-1.04-.677-1.83-.677-.501 0-.94.102-1.316.308a2.13 2.13 0 0 0-.874.875c-.206.378-.312.832-.319 1.359zM108.575 50.844c-1.837 0-3.418-.328-4.743-.984-1.325-.656-2.344-1.601-3.057-2.834-.713-1.233-1.069-2.711-1.069-4.434 0-1.653.358-3.098 1.075-4.334.717-1.237 1.728-2.198 3.035-2.887 1.306-.687 2.848-1.03 4.624-1.03 1.299 0 2.475.187 3.528.562 1.052.375 1.952.918 2.698 1.63a7.193 7.193 0 0 1 1.725 2.59c.403 1.014.605 2.156.605 3.428v1.333h-15.364v-3.167h9.675a2.146 2.146 0 0 0-.375-1.214 2.484 2.484 0 0 0-.974-.823 3.12 3.12 0 0 0-1.383-.297c-.501 0-.96.099-1.377.297a2.56 2.56 0 0 0-1.003.818 2.15 2.15 0 0 0-.397 1.219v3.417c0 .514.115.973.347 1.376.231.402.563.718.997.948.432.229.955.344 1.567.344.426 0 .816-.056 1.171-.167a2.63 2.63 0 0 0 .912-.484c.253-.212.44-.468.56-.766h5.644a5.77 5.77 0 0 1-1.377 2.892c-.725.815-1.682 1.447-2.873 1.896-1.19.448-2.581.671-4.171.671zM119.504 50.553V34.548h6.002v3.043h.179c.314-1.125.812-1.949 1.495-2.47.683-.52 1.484-.78 2.402-.78.269 0 .536.018.801.056.264.038.521.093.767.162v4.908a5.899 5.899 0 0 0-1.131-.22 10.966 10.966 0 0 0-1.153-.072c-.605 0-1.148.127-1.63.38-.481.254-.86.608-1.136 1.063-.276.454-.415.988-.415 1.6v8.335h-6.181z" fill="#315C2B"/><path d="M14.357 25.263v-.384l1.944-.96V10.767l-1.944-.96v-.384h7.296c1.792 0 3.32.312 4.584.936 1.264.624 2.224 1.48 2.88 2.568.672 1.088 1.008 2.32 1.008 3.696 0 1.248-.216 2.4-.648 3.456a8.047 8.047 0 0 1-1.824 2.736 8.225 8.225 0 0 1-2.736 1.8c-1.04.432-2.184.648-3.432.648h-7.128zm6.648-14.52h-2.184v13.2h2.544c1.28 0 2.376-.264 3.288-.792a5.49 5.49 0 0 0 2.112-2.28c.496-.992.744-2.16.744-3.504 0-1.328-.256-2.488-.768-3.48a5.266 5.266 0 0 0-2.208-2.328c-.96-.544-2.136-.816-3.528-.816zm15.342 14.76c-.768 0-1.408-.224-1.92-.672-.496-.464-.744-1.096-.744-1.896 0-.784.28-1.456.84-2.016.576-.576 1.568-1.032 2.976-1.368l2.28-.528v-1.68c0-.576-.216-1.056-.648-1.44a2.089 2.089 0 0 0-1.464-.576c-.592 0-1.008.152-1.248.456-.224.304-.336.72-.336 1.248v.768l-.12.12h-1.32c-.24 0-.408-.04-.504-.12-.08-.096-.12-.288-.12-.576 0-.352.104-.704.312-1.056.224-.368.56-.688 1.008-.96.48-.304.968-.544 1.464-.72a4.35 4.35 0 0 1 1.584-.288c.608 0 1.192.088 1.752.264.576.16 1.04.44 1.392.84.352.4.528.936.528 1.608v6.696c.112.112.264.208.456.288.208.08.488.12.84.12h.84l.096.048v.144c-.192.336-.488.64-.888.912-.384.256-.856.384-1.416.384-.544 0-.984-.128-1.32-.384-.336-.272-.576-.64-.72-1.104h-.168a5.44 5.44 0 0 1-1.536 1.056 4.278 4.278 0 0 1-1.896.432zm-.48-3.096c0 .992.584 1.488 1.752 1.488.352 0 .688-.032 1.008-.096.336-.08.72-.208 1.152-.384v-3.552c-1.152.224-2.008.464-2.568.72-.56.256-.928.536-1.104.84-.16.288-.24.616-.24.984zm14.98 2.856-4.417-9.72-1.584-.72v-.384h5.976v.384l-1.896.696v.144l2.952 6.36h.096l2.592-6.24v-.12l-1.68-.84v-.384h4.704v.384l-1.752.816-4.392 9.624h-.6zm10.859-13.848c-.432 0-.792-.144-1.08-.432a1.465 1.465 0 0 1-.432-1.08c0-.448.144-.808.432-1.08a1.465 1.465 0 0 1 1.08-.432c.432 0 .792.144 1.08.432.288.272.432.632.432 1.08 0 .432-.144.792-.432 1.08a1.465 1.465 0 0 1-1.08.432zm-2.592 13.848v-.384l1.536-.768v-7.176l-1.464-1.224v-.192l3.552-1.32h.168v9.912l1.488.768v.384h-5.28zm12.56.24a3.83 3.83 0 0 1-2.111-.6c-.624-.4-1.12-.96-1.488-1.68-.368-.736-.552-1.608-.552-2.616 0-1.36.256-2.512.768-3.456.528-.96 1.224-1.688 2.088-2.184a5.67 5.67 0 0 1 2.904-.768c.432 0 .816.016 1.152.048.336.032.64.088.912.168V9.999l-1.584-1.224v-.192l3.672-1.32h.168v16.92l1.704.696v.384h-3.72l-.216-1.224h-.144c-.608.512-1.192.888-1.752 1.128-.56.224-1.16.336-1.8.336zm-1.871-5.496c0 1.312.328 2.272.984 2.88.656.592 1.44.888 2.352.888.768 0 1.504-.224 2.208-.672v-6.768a4.447 4.447 0 0 0-1.056-.696c-.336-.176-.728-.264-1.176-.264-.608 0-1.16.152-1.656.456-.496.288-.896.776-1.2 1.464-.304.672-.456 1.576-.456 2.712z" fill="#565656"/><path d="m143.569 75.702.128-36.59c.121-16.704.268-25.685-15.481-26.194m-.034 0 .034-11.655c-11.623 0-21.059 9.495-21.059 21.19v4.87h-7.041l.021-9.387-7.79-.04v-2.512l-7.02.04-.15 1.721h-1.868l-.026 3.81" stroke="#565656" stroke-width="2" stroke-miterlimit="1.5" stroke-linecap="square"/></svg>